<svg width="1024" height="1024" viewBox="0 0 1024 1024" fill="none" xmlns="http://www.w3.org/2000/svg">
<rect width="1024" height="1024" rx="200" fill="#FF66AC"/>
<path d="M619.215 154.226C608.637 164.484 608.316 181.474 618.574 192.052C622.42 196.22 633.639 202.951 643.255 207.119C734.29 244.304 807.694 329.893 834.94 431.189C841.992 458.116 842.954 468.695 843.274 513.253C843.274 555.566 842.313 569.35 836.543 591.789C811.541 690.522 748.714 769.379 659.283 813.616C616.65 834.773 611.201 839.582 611.201 854.648C611.201 867.791 619.856 879.01 632.357 882.216C647.102 886.063 701.915 859.777 745.829 828.042C771.152 809.77 811.861 767.135 831.735 738.285C883.663 662.954 908.986 566.465 900.331 478.953C885.907 339.189 807.053 224.429 683.323 163.523C643.576 143.969 631.075 142.045 619.215 154.226Z" fill="white"/>
<path d="M431.047 342.068C424.316 343.991 418.866 346.556 418.866 347.838C418.866 348.8 439.061 369.957 464.063 394.64C510.862 441.121 520.479 454.584 515.35 467.406C511.824 476.061 467.91 519.337 459.575 522.543C448.356 526.389 432.65 514.849 388.415 470.291C363.733 445.288 342.577 425.093 341.615 425.093C336.487 425.093 331.679 459.392 333.281 481.511C337.448 538.891 380.401 584.731 439.061 594.989C456.691 598.194 464.704 597.874 486.501 593.386L512.786 588.257L557.982 632.815C582.985 657.498 606.384 679.296 610.231 681.219C621.45 686.989 643.567 685.386 655.427 678.334C675.301 666.153 684.917 636.02 674.981 616.466C673.057 612.62 651.26 589.219 626.578 564.215L582.023 519.016L587.152 492.731C596.447 448.173 585.228 409.706 554.456 376.368C532.339 352.967 505.093 341.106 470.474 339.824C455.408 339.183 437.458 340.465 431.047 342.068Z" fill="white"/>
<path fill-rule="evenodd" clip-rule="evenodd" d="M530.183 873.608C529.681 889.783 516.174 902.488 500.014 901.986C480.342 901.374 460.481 899.261 440.567 895.562C420.652 891.862 401.356 886.702 382.774 880.208C367.51 874.873 359.457 858.163 364.787 842.885C370.116 827.607 386.811 819.546 402.075 824.881C417.856 830.396 434.271 834.788 451.249 837.942C468.227 841.096 485.124 842.891 501.832 843.411C517.992 843.913 530.685 857.432 530.183 873.608Z" fill="white"/>
<path fill-rule="evenodd" clip-rule="evenodd" d="M298.356 804.366C287.784 816.61 269.297 817.957 257.065 807.375C226.827 781.216 200.736 750.535 179.767 716.479C171.285 702.702 175.566 684.651 189.329 676.16C203.093 667.67 221.127 671.955 229.61 685.732C247.442 714.693 269.636 740.791 295.35 763.037C307.582 773.619 308.928 792.123 298.356 804.366Z" fill="white"/>
<path fill-rule="evenodd" clip-rule="evenodd" d="M161.309 422.266C177.248 424.979 187.971 440.111 185.261 456.065C182.458 472.56 180.868 489.493 180.592 506.775C180.315 524.056 181.363 541.031 183.637 557.608C185.836 573.64 174.634 588.421 158.617 590.622C142.599 592.824 127.832 581.611 125.633 565.579C122.956 546.061 121.727 526.108 122.051 505.837C122.375 485.566 124.241 465.662 127.541 446.24C130.252 430.286 145.37 419.552 161.309 422.266Z" fill="white"/>
<path fill-rule="evenodd" clip-rule="evenodd" d="M301.536 217.492C311.975 229.849 310.429 248.338 298.083 258.786C272.128 280.752 249.654 306.607 231.508 335.373C222.877 349.057 204.797 353.146 191.127 344.506C177.456 335.867 173.37 317.77 182.002 304.087C203.339 270.26 229.761 239.865 260.28 214.035C272.626 203.587 291.097 205.134 301.536 217.492Z" fill="white"/>
<path fill-rule="evenodd" clip-rule="evenodd" d="M543.575 151.486C543.477 167.669 530.291 180.708 514.123 180.609C497.408 180.508 480.456 181.674 463.373 184.195C446.29 186.716 429.723 190.495 413.748 195.421C398.297 200.185 381.913 191.509 377.153 176.044C372.394 160.578 381.061 144.178 396.512 139.414C415.322 133.615 434.796 129.175 454.834 126.218C474.872 123.262 494.797 121.887 514.479 122.007C530.647 122.106 543.673 135.304 543.575 151.486Z" fill="white"/>
<path d="M388.08 255.288C394.722 249.606 404.713 250.385 410.395 257.027C416.077 263.669 415.298 273.659 408.656 279.341L384.603 299.917C377.961 305.599 367.97 304.821 362.288 298.179C356.606 291.537 357.385 281.546 364.027 275.864L388.08 255.288Z" fill="#BEDAFF"/>
<path d="M721.117 444.552C724.14 452.754 719.941 461.853 711.739 464.875C703.537 467.897 694.438 463.698 691.416 455.496L680.472 425.795C677.45 417.593 681.649 408.494 689.851 405.472C698.052 402.45 707.151 406.649 710.173 414.851L721.117 444.552Z" fill="#938AFF"/>
<path d="M518.294 740.951C514.969 749.035 505.721 752.893 497.637 749.568C489.553 746.243 485.695 736.995 489.02 728.911L501.061 699.637C504.385 691.553 513.634 687.695 521.718 691.02C529.802 694.345 533.659 703.594 530.335 711.677L518.294 740.951Z" fill="#FFDC64"/>
<path d="M798.879 936.252C792.876 942.606 782.859 942.891 776.505 936.889C770.151 930.887 769.866 920.87 775.868 914.516L797.604 891.505C803.606 885.151 813.623 884.866 819.977 890.868C826.332 896.87 826.617 906.887 820.615 913.241L798.879 936.252Z" fill="#B6E585"/>
<path d="M917.05 259.997C908.738 257.293 904.192 248.363 906.896 240.05C909.6 231.738 918.53 227.192 926.843 229.896L956.943 239.688C965.255 242.392 969.802 251.323 967.098 259.635C964.393 267.947 955.463 272.493 947.151 269.789L917.05 259.997Z" fill="#BEDAFF"/>
<path d="M203.223 118.308C198.129 111.204 199.758 101.317 206.862 96.2231C213.965 91.1294 223.852 92.7584 228.946 99.8617L247.392 125.585C252.486 132.688 250.857 142.576 243.754 147.67C236.65 152.763 226.763 151.134 221.669 144.031L203.223 118.308Z" fill="#938AFF"/>
<path d="M258.487 914.73C257.666 906.028 264.055 898.307 272.757 897.487C281.459 896.666 289.179 903.055 290 911.757L292.973 943.27C293.794 951.972 287.405 959.693 278.703 960.514C270.001 961.334 262.281 954.945 261.46 946.243L258.487 914.73Z" fill="#BEDAFF"/>
<path d="M970.095 674.641C978.134 678.073 981.869 687.372 978.437 695.411C975.005 703.45 965.707 707.185 957.668 703.753L928.556 691.326C920.517 687.894 916.782 678.595 920.214 670.556C923.646 662.517 932.944 658.782 940.983 662.214L970.095 674.641Z" fill="white"/>
<path d="M748.288 107.93C740.259 111.385 730.95 107.677 727.495 99.6476C724.04 91.6185 727.748 82.3089 735.777 78.8541L764.853 66.3428C772.882 62.8879 782.192 66.5961 785.646 74.6251C789.101 82.6542 785.393 91.9638 777.364 95.4187L748.288 107.93Z" fill="#FFDC64"/>
<path d="M80.2837 356.965C81.5675 365.611 75.5993 373.661 66.9532 374.945C58.3072 376.228 50.2574 370.26 48.9736 361.614L44.3245 330.304C43.0407 321.658 49.009 313.608 57.6551 312.324C66.3011 311.041 74.3509 317.009 75.6347 325.655L80.2837 356.965Z" fill="white"/>
<path d="M100.497 709.805C102.075 701.207 110.323 695.517 118.921 697.095C127.518 698.673 133.208 706.922 131.63 715.519L125.915 746.653C124.337 755.25 116.089 760.94 107.491 759.362C98.8942 757.784 93.2041 749.535 94.7821 740.938L100.497 709.805Z" fill="#B6E585"/>
</svg>
