<svg width="1024" height="1024" viewBox="0 0 1024 1024" fill="none" xmlns="http://www.w3.org/2000/svg">
<rect width="1024" height="1024" rx="200" fill="white"/>
<ellipse cx="293.887" cy="239.296" rx="77.3655" ry="30.9462" transform="rotate(-7.90827 293.887 239.296)" fill="black"/>
<ellipse cx="307.775" cy="498.436" rx="111.167" ry="56.364" transform="rotate(-93.9195 307.775 498.436)" fill="black"/>
<ellipse cx="696.168" cy="499.133" rx="111.167" ry="56.364" transform="rotate(-85.239 696.168 499.133)" fill="black"/>
<ellipse cx="728.808" cy="246.765" rx="77.3654" ry="30.9462" transform="rotate(14.0163 728.808 246.765)" fill="black"/>
<path fill-rule="evenodd" clip-rule="evenodd" d="M469.643 669.181C477.307 668.063 485.296 667.627 492.104 667.627C502.563 667.627 518.268 669.019 530.015 673.921C535.772 676.324 542.387 680.307 545.806 687.148C549.65 694.836 548.082 703.104 543.457 710.555C543.157 711.039 542.816 711.495 542.439 711.921C535.032 720.274 520.631 730.871 502.177 733.504C502.283 746.495 502.634 760.481 503.467 772.93C503.987 780.707 504.686 787.725 505.598 793.449C506.161 796.984 506.758 799.696 507.32 801.661C539.847 796.321 570.651 784.857 599.829 768.08C594.525 762.304 589.451 757.859 586.065 755.32C581.631 751.995 580.733 745.704 584.058 741.27C587.384 736.836 593.674 735.938 598.108 739.263C604.09 743.75 613.189 752.039 621.557 762.654C622.421 763.344 623.186 764.19 623.805 765.181C624.089 765.635 624.333 766.103 624.536 766.581C631.255 775.79 637.474 786.89 640.505 799.013C641.85 804.39 638.58 809.839 633.203 811.183C627.826 812.528 622.378 809.258 621.033 803.881C619.345 797.126 616.17 790.42 612.195 784.109C550.391 820.317 481.18 834.347 404.639 819.039C399.204 817.952 395.679 812.665 396.766 807.23C397.853 801.795 403.14 798.27 408.575 799.357C435.826 804.807 462.033 806.289 487.236 804.155C486.661 801.72 486.184 799.167 485.777 796.606C484.731 790.045 483.982 782.36 483.44 774.27C482.558 761.091 482.203 746.42 482.101 733.024C472.179 731.118 461.911 726.616 451.703 718.722C442.896 711.91 435.955 704.229 435.136 695.353C434.158 684.77 441.858 678.477 447.891 675.367C454.18 672.124 462.165 670.272 469.643 669.181ZM620.369 779.165L620.369 779.165L615.056 770.651L620.369 779.165ZM455.435 694.191C456.097 695.42 458.099 698.294 463.982 702.845C474.436 710.929 484.08 713.791 492.392 714.03C507.646 714.468 520.495 706.032 526.82 699.265C527.628 697.819 527.833 696.929 527.881 696.535C527.917 696.231 527.878 696.165 527.859 696.133C527.857 696.129 527.856 696.126 527.854 696.123C527.652 695.718 526.45 694.182 522.286 692.444C514.19 689.066 501.63 687.698 492.104 687.698C486.064 687.698 479.064 688.09 472.541 689.042C465.833 690.021 460.435 691.481 457.088 693.207C456.309 693.608 455.783 693.939 455.435 694.191ZM454.822 694.772C454.806 694.77 454.84 694.703 454.97 694.574C454.903 694.709 454.838 694.773 454.822 694.772Z" fill="black"/>
<ellipse cx="493" cy="701" rx="42" ry="15" fill="black"/>
</svg>
