<svg width="1024" height="1024" viewBox="0 0 1024 1024" fill="none" xmlns="http://www.w3.org/2000/svg">
<rect width="1024" height="1024" rx="200" fill="#007FFF"/>
<path d="M735.291 792.64C526.764 913.366 332.87 842.942 261.989 792.64C168.701 792.64 172.816 742.337 186.535 717.186C95.9906 656.822 125.943 586.856 152.238 559.418C127.544 531.98 155.668 509.116 172.816 501.113C151.095 501.113 111.081 490.138 124.8 446.237C138.519 402.337 173.96 400.508 189.965 405.081C135.089 303.561 167.1 202.727 189.965 165C236.609 178.719 307.719 239.311 337.443 267.892C382.03 227.878 480.12 154.711 515.789 182.149C545.485 204.992 512.262 237.345 481.831 257.435C498.066 250.554 524.837 243.884 563.805 243.884C614.401 243.884 607.487 266.374 593.154 283.077C668.273 209.66 757.293 176.13 793.596 168.43C840.241 247.999 833.61 361.638 824.464 408.51C854.646 430.461 850.759 458.813 845.042 470.245C932.843 492.196 899.918 550.272 872.48 576.567C902.662 628.699 859.904 657.737 834.753 665.74C856.703 695.921 837.04 721.759 824.464 730.904C816.233 791.268 761.586 797.213 735.291 792.64Z" fill="white"/>
<ellipse cx="393.882" cy="402.811" rx="34.2972" ry="13.7189" transform="rotate(-7.90827 393.882 402.811)" fill="black"/>
<ellipse cx="400.038" cy="517.692" rx="49.2818" ry="24.987" transform="rotate(-93.9195 400.038 517.692)" fill="black"/>
<ellipse cx="572.218" cy="518.001" rx="49.2818" ry="24.987" transform="rotate(-85.239 572.218 518.001)" fill="black"/>
<ellipse cx="586.689" cy="406.122" rx="34.2972" ry="13.7189" transform="rotate(14.0163 586.689 406.122)" fill="black"/>
<path d="M500.74 609.381C506.815 599.593 490.614 597.146 481.754 597.146C470.363 597.146 451.378 600.082 466.566 611.828C471.894 615.949 477.066 617.58 481.754 617.715C490.432 617.964 497.453 613.088 500.74 609.381Z" fill="black"/>
<path fill-rule="evenodd" clip-rule="evenodd" d="M471.797 593.386C475.194 592.89 478.736 592.697 481.754 592.697C486.391 592.697 493.353 593.314 498.561 595.487C501.113 596.552 504.045 598.318 505.561 601.35C507.265 604.758 506.57 608.424 504.52 611.727C504.387 611.941 504.236 612.144 504.068 612.333C500.785 616.036 494.401 620.733 486.22 621.901C486.267 627.66 486.422 633.86 486.792 639.379C487.022 642.826 487.332 645.938 487.736 648.475C487.986 650.042 488.25 651.245 488.5 652.116C502.919 649.748 516.575 644.666 529.51 637.229C527.159 634.668 524.91 632.698 523.409 631.572C521.443 630.098 521.045 627.309 522.519 625.344C523.993 623.378 526.782 622.98 528.747 624.454C531.399 626.443 535.433 630.117 539.142 634.823C539.526 635.129 539.865 635.504 540.139 635.943C540.265 636.145 540.373 636.352 540.463 636.564C543.442 640.647 546.199 645.567 547.543 650.942C548.139 653.326 546.689 655.741 544.306 656.337C541.922 656.933 539.506 655.484 538.911 653.1C538.162 650.105 536.754 647.132 534.992 644.335C507.594 660.386 476.912 666.606 442.98 659.819C440.57 659.338 439.008 656.994 439.49 654.584C439.971 652.175 442.315 650.612 444.725 651.094C456.806 653.511 468.423 654.167 479.596 653.221C479.341 652.142 479.13 651.01 478.949 649.875C478.486 646.966 478.154 643.559 477.914 639.973C477.523 634.13 477.365 627.627 477.32 621.688C472.921 620.843 468.369 618.847 463.844 615.348C459.94 612.328 456.863 608.923 456.499 604.988C456.066 600.296 459.48 597.507 462.154 596.128C464.942 594.69 468.482 593.869 471.797 593.386ZM538.616 642.143L538.616 642.143L536.261 638.369L538.616 642.143ZM465.499 604.473C465.792 605.018 466.679 606.292 469.287 608.309C473.922 611.893 478.197 613.162 481.882 613.268C488.644 613.462 494.34 609.722 497.144 606.722C497.503 606.081 497.594 605.686 497.615 605.512C497.631 605.377 497.613 605.348 497.605 605.333C497.604 605.332 497.603 605.331 497.603 605.329C497.513 605.15 496.98 604.469 495.134 603.698C491.545 602.201 485.977 601.594 481.754 601.594C479.076 601.594 475.973 601.768 473.082 602.19C470.108 602.624 467.715 603.271 466.231 604.036C465.886 604.214 465.653 604.361 465.499 604.473ZM465.227 604.73C465.22 604.729 465.234 604.7 465.292 604.642C465.263 604.702 465.234 604.731 465.227 604.73Z" fill="black"/>
</svg>
