<svg width="1024" height="1024" viewBox="0 0 1024 1024" fill="none" xmlns="http://www.w3.org/2000/svg">
<rect width="1024" height="1024" rx="200" fill="white"/>
<path d="M619.215 154.226C608.637 164.484 608.316 181.474 618.574 192.052C622.42 196.22 633.639 202.951 643.256 207.119C734.29 244.304 807.694 329.893 834.941 431.189C841.992 458.116 842.954 468.695 843.275 513.253C843.275 555.566 842.313 569.35 836.543 591.789C811.541 690.522 748.714 769.379 659.283 813.616C616.651 834.773 611.201 839.582 611.201 854.648C611.201 867.791 619.856 879.01 632.357 882.216C647.102 886.063 701.915 859.777 745.83 828.042C771.152 809.77 811.861 767.135 831.735 738.285C883.663 662.954 908.986 566.465 900.331 478.953C885.907 339.189 807.053 224.429 683.324 163.523C643.576 143.969 631.075 142.045 619.215 154.226Z" fill="#007FFF"/>
<path d="M431.047 342.068C424.316 343.991 418.867 346.556 418.867 347.838C418.867 348.8 439.061 369.957 464.063 394.64C510.863 441.121 520.479 454.584 515.35 467.406C511.824 476.061 467.91 519.337 459.576 522.543C448.357 526.389 432.65 514.849 388.415 470.291C363.733 445.288 342.577 425.093 341.616 425.093C336.487 425.093 331.679 459.392 333.282 481.511C337.449 538.891 380.401 584.731 439.061 594.989C456.691 598.194 464.704 597.874 486.501 593.386L512.786 588.257L557.982 632.815C582.985 657.498 606.385 679.296 610.231 681.219C621.45 686.989 643.568 685.386 655.428 678.334C675.301 666.153 684.918 636.02 674.981 616.466C673.058 612.62 651.261 589.219 626.579 564.215L582.023 519.016L587.152 492.731C596.448 448.173 585.229 409.706 554.457 376.368C532.339 352.967 505.093 341.106 470.474 339.824C455.409 339.183 437.458 340.465 431.047 342.068Z" fill="#007FFF"/>
<path fill-rule="evenodd" clip-rule="evenodd" d="M530.183 873.608C529.682 889.783 516.175 902.488 500.015 901.986C480.342 901.374 460.481 899.261 440.567 895.562C420.652 891.862 401.356 886.702 382.775 880.208C367.511 874.873 359.457 858.163 364.787 842.885C370.117 827.607 386.811 819.546 402.075 824.881C417.857 830.396 434.272 834.788 451.25 837.942C468.228 841.096 485.124 842.891 501.832 843.411C517.992 843.913 530.685 857.432 530.183 873.608Z" fill="#007FFF"/>
<path fill-rule="evenodd" clip-rule="evenodd" d="M298.356 804.366C287.784 816.61 269.298 817.957 257.065 807.375C226.828 781.216 200.737 750.535 179.768 716.479C171.285 702.702 175.566 684.651 189.33 676.16C203.093 667.67 221.127 671.955 229.61 685.732C247.443 714.693 269.636 740.791 295.351 763.037C307.583 773.619 308.928 792.123 298.356 804.366Z" fill="#007FFF"/>
<path fill-rule="evenodd" clip-rule="evenodd" d="M161.309 422.266C177.248 424.979 187.972 440.111 185.261 456.065C182.458 472.56 180.868 489.493 180.592 506.775C180.316 524.056 181.364 541.031 183.637 557.608C185.836 573.64 174.634 588.421 158.617 590.622C142.6 592.824 127.832 581.611 125.633 565.579C122.956 546.061 121.727 526.108 122.051 505.837C122.375 485.566 124.242 465.662 127.541 446.24C130.252 430.286 145.37 419.552 161.309 422.266Z" fill="#007FFF"/>
<path fill-rule="evenodd" clip-rule="evenodd" d="M301.536 217.492C311.975 229.849 310.429 248.338 298.083 258.786C272.129 280.752 249.654 306.607 231.509 335.373C222.877 349.057 204.798 353.146 191.127 344.506C177.456 335.867 173.371 317.77 182.002 304.087C203.339 270.26 229.761 239.865 260.281 214.035C272.627 203.587 291.097 205.134 301.536 217.492Z" fill="#007FFF"/>
<path fill-rule="evenodd" clip-rule="evenodd" d="M543.575 151.486C543.477 167.669 530.291 180.708 514.124 180.609C497.408 180.508 480.456 181.674 463.373 184.195C446.29 186.716 429.724 190.495 413.748 195.421C398.297 200.185 381.913 191.509 377.154 176.044C372.394 160.578 381.061 144.178 396.513 139.414C415.323 133.615 434.796 129.175 454.834 126.218C474.872 123.262 494.798 121.887 514.479 122.007C530.647 122.106 543.673 135.304 543.575 151.486Z" fill="#007FFF"/>
</svg>
